<svg width="66" height="66" viewBox="0 0 66 66" fill="none" xmlns="http://www.w3.org/2000/svg">
<circle cx="33" cy="33" r="33" fill="#E0F0FC"/>
<path d="M45.0486 41.6246C42.8854 41.6225 40.7363 41.2762 38.6819 40.5986C38.2081 40.4333 37.6978 40.4019 37.2073 40.5078C36.7167 40.6137 36.2648 40.8528 35.9014 41.1988L31.8792 44.2411C27.5493 42.0675 24.0356 38.5557 21.8599 34.2268L24.8251 30.2868C25.1911 29.9195 25.4492 29.4588 25.5714 28.9549C25.6935 28.451 25.6749 27.9233 25.5177 27.4292C24.8369 25.3721 24.4905 23.2192 24.4917 21.0523C24.4917 20.309 24.1967 19.596 23.6716 19.0698C23.1464 18.5437 22.4339 18.2475 21.6906 18.2461H15.1546C14.4113 18.2475 13.6988 18.5437 13.1736 19.0698C12.6485 19.596 12.3535 20.309 12.3535 21.0523C12.363 29.7207 15.8107 38.0313 21.9402 44.1607C28.0696 50.2902 36.3802 53.7379 45.0486 53.7474C45.7911 53.746 46.5028 53.4505 47.0278 52.9255C47.5528 52.4005 47.8483 51.6888 47.8497 50.9463V44.4257C47.8483 43.6833 47.5528 42.9716 47.0278 42.4466C46.5028 41.9215 45.7911 41.626 45.0486 41.6246Z" fill="#4682FA"/>
<path d="M35.3884 34.5497C35.0991 34.2595 34.8707 33.9144 34.7165 33.5347C34.5623 33.155 34.4855 32.7483 34.4906 32.3386C34.4898 31.953 34.5692 31.5714 34.7237 31.2181C34.8783 30.8649 35.1046 30.5476 35.3884 30.2865C36.0374 29.7355 36.8611 29.4331 37.7124 29.4331C38.5637 29.4331 39.3874 29.7355 40.0364 30.2865C40.3196 30.5486 40.5462 30.8659 40.7024 31.2187C40.8585 31.5716 40.9409 31.9527 40.9444 32.3386C40.9569 32.7498 40.8856 33.1593 40.7348 33.5421C40.584 33.9248 40.3568 34.2729 40.0672 34.5651C39.4318 35.1707 38.5876 35.5086 37.7098 35.5086C36.832 35.5086 35.9879 35.1707 35.3525 34.5651L35.3884 34.5497Z" fill="#FA9B52"/>
<path d="M35.4857 11.6382H39.9593C40.0738 11.6387 40.187 11.6625 40.292 11.7083C40.3969 11.7541 40.4915 11.8208 40.5698 11.9043C40.648 11.9879 40.7084 12.0866 40.7473 12.1943C40.7861 12.302 40.8025 12.4166 40.7955 12.5308L39.8618 26.2543C39.8476 26.4652 39.7539 26.663 39.5997 26.8077C39.4455 26.9524 39.2422 27.0332 39.0307 27.0341H36.4143C36.202 27.0345 35.9974 26.9542 35.8421 26.8094C35.6868 26.6646 35.5924 26.4661 35.5781 26.2543L34.6495 12.5308C34.6417 12.4164 34.6576 12.3015 34.6962 12.1935C34.7347 12.0854 34.7951 11.9864 34.8735 11.9027C34.952 11.819 35.0468 11.7523 35.1521 11.7068C35.2574 11.6613 35.371 11.6379 35.4857 11.6382Z" fill="#FA9B52"/>
</svg>
