<svg width="66" height="66" viewBox="0 0 66 66" fill="none" xmlns="http://www.w3.org/2000/svg">
<circle cx="33" cy="33" r="33" fill="#E0F0FC"/>
<path d="M32.9972 18.4075C34.6417 18.4068 36.2703 18.717 37.7897 19.3203C39.3092 19.9236 40.6898 20.8082 41.8527 21.9236C43.0156 23.039 43.9378 24.3633 44.5668 25.8207C45.1958 27.2782 45.5192 28.8402 45.5185 30.4176V41.5186H20.4814V30.4176C20.4807 28.8407 20.8039 27.2791 21.4326 25.8219C22.0612 24.3648 22.983 23.0408 24.1453 21.9255C25.3075 20.8102 26.6875 19.9254 28.2064 19.3218C29.7252 18.7182 31.3532 18.4075 32.9972 18.4075Z" fill="#4682FA"/>
<path d="M47.7724 43.4443H18.2275C17.345 43.4443 16.6296 44.1763 16.6296 45.0793V49.5131C16.6296 50.4161 17.345 51.148 18.2275 51.148H47.7724C48.6549 51.148 49.3703 50.4161 49.3703 49.5131V45.0793C49.3703 44.1763 48.6549 43.4443 47.7724 43.4443Z" fill="#4682FA"/>
<path d="M33.9629 35.7407H32.037V41.5185H33.9629V35.7407Z" fill="#EAF1FF"/>
<path d="M33 37.6665C36.7228 37.6665 39.7407 34.6486 39.7407 30.9258C39.7407 27.203 36.7228 24.1851 33 24.1851C29.2771 24.1851 26.2592 27.203 26.2592 30.9258C26.2592 34.6486 29.2771 37.6665 33 37.6665Z" fill="#EAF1FF"/>
<path d="M33 15C32.7378 15 32.486 14.9416 32.299 14.8374C32.1119 14.7331 32.0045 14.5913 32 14.4426V9.56721C32 9.41678 32.1054 9.27251 32.2929 9.16613C32.4804 9.05976 32.7348 9 33 9C33.2652 9 33.5196 9.05976 33.7071 9.16613C33.8946 9.27251 34 9.41678 34 9.56721V14.4426C33.9955 14.5913 33.8881 14.7331 33.701 14.8374C33.514 14.9416 33.2622 15 33 15Z" fill="#FA9B52"/>
<path d="M25.3564 17.1011C25.1286 17.2312 24.8956 17.3307 24.7073 17.3782C24.519 17.4258 24.3906 17.4175 24.3498 17.3551L23.1407 15.2384C23.1034 15.1731 23.1591 15.0582 23.2955 14.919C23.432 14.7798 23.638 14.6277 23.8683 14.4962C24.0986 14.3646 24.3343 14.2644 24.5235 14.2176C24.7127 14.1707 24.84 14.1811 24.8773 14.2464L26.0864 16.3631C26.1194 16.4299 26.0613 16.5447 25.9247 16.6828C25.7882 16.8208 25.5841 16.9711 25.3564 17.1011Z" fill="#FA9B52"/>
<path d="M17.2333 27.7641C17.1831 28.0215 17.1062 28.263 17.0193 28.4366C16.9323 28.6102 16.8422 28.702 16.7683 28.6923L14.3757 28.2257C14.3019 28.2113 14.2512 28.0941 14.2349 27.8998C14.2186 27.7056 14.238 27.4502 14.2887 27.1899C14.3395 26.9296 14.4175 26.6856 14.5056 26.5117C14.5937 26.3379 14.6847 26.2483 14.7585 26.2626L17.1511 26.7292C17.2232 26.7479 17.2723 26.8669 17.2876 27.0604C17.303 27.254 17.2835 27.5067 17.2333 27.7641Z" fill="#FA9B52"/>
<path d="M52.1359 27.19C52.0858 26.9326 52.0089 26.6911 51.9219 26.5175C51.835 26.3439 51.7449 26.2521 51.671 26.2618L49.2784 26.7284C49.2045 26.7428 49.1539 26.86 49.1376 27.0543C49.1213 27.2485 49.1406 27.5039 49.1914 27.7642C49.2422 28.0245 49.3202 28.2685 49.4083 28.4424C49.4964 28.6162 49.5873 28.7058 49.6612 28.6915L52.0538 28.2249C52.1259 28.2062 52.1749 28.0872 52.1903 27.8937C52.2057 27.7001 52.1861 27.4474 52.1359 27.19Z" fill="#FA9B52"/>
<path d="M42.3564 14.496C42.1286 14.366 41.8956 14.2664 41.7073 14.2189C41.519 14.1714 41.3906 14.1797 41.3498 14.242L40.1407 16.3587C40.1034 16.424 40.1591 16.5389 40.2955 16.6781C40.432 16.8173 40.638 16.9694 40.8683 17.101C41.0986 17.2325 41.3343 17.3328 41.5235 17.3796C41.7127 17.4264 41.84 17.4161 41.8773 17.3507L43.0864 15.234C43.1194 15.1672 43.0613 15.0524 42.9247 14.9144C42.7882 14.7763 42.5841 14.6261 42.3564 14.496Z" fill="#FA9B52"/>
<path d="M19.4419 21.336C19.2877 21.5481 19.0925 21.7175 18.8982 21.8075C18.7039 21.8976 18.5261 21.9011 18.4031 21.8173L14.4589 18.9516C14.3372 18.8631 14.2824 18.6931 14.3066 18.4789C14.3308 18.2646 14.4319 18.0237 14.5878 17.8092C14.7437 17.5946 14.9416 17.424 15.1379 17.3348C15.3342 17.2456 15.5128 17.2451 15.6345 17.3336L19.5787 20.1993C19.6964 20.2904 19.748 20.4606 19.7224 20.6732C19.6968 20.8858 19.596 21.1238 19.4419 21.336Z" fill="#FA9B52"/>
<path d="M51.4419 17.8091C51.2877 17.5969 51.0925 17.4275 50.8982 17.3375C50.7039 17.2475 50.5261 17.2439 50.4031 17.3277L46.4589 20.1934C46.3372 20.2819 46.2824 20.4519 46.3066 20.6662C46.3308 20.8804 46.4319 21.1213 46.5878 21.3359C46.7437 21.5504 46.9416 21.7211 47.1379 21.8103C47.3342 21.8995 47.5128 21.8999 47.6345 21.8115L51.5787 18.9457C51.6964 18.8546 51.748 18.6844 51.7224 18.4718C51.6968 18.2592 51.596 18.0212 51.4419 17.8091Z" fill="#FA9B52"/>
</svg>
