<svg width="66" height="66" viewBox="0 0 66 66" fill="none" xmlns="http://www.w3.org/2000/svg">
<circle cx="33" cy="33" r="33" fill="#E0F0FC"/>
<path d="M49.4079 48.4062H46.7829V16.9062C46.7829 16.1811 46.1956 15.5937 45.4704 15.5937H19.8767V12.9687C19.8767 12.2436 20.464 11.6562 21.1892 11.6562H49.4079C50.1331 11.6562 50.7204 12.2436 50.7204 12.9687V47.0937C50.7204 47.8189 50.1331 48.4062 49.4079 48.4062Z" fill="#FA9B52"/>
<path d="M44.158 16.9065H16.5955C15.8703 16.9065 15.283 17.4938 15.283 18.219V51.0315C15.283 51.7566 15.8703 52.344 16.5955 52.344H44.158C44.8831 52.344 45.4705 51.7566 45.4705 51.0315V18.219C45.4705 17.4938 44.8831 16.9065 44.158 16.9065ZM27.7517 43.1565H22.5017C22.1395 43.1565 21.8455 42.8625 21.8455 42.5002C21.8455 42.138 22.1395 41.844 22.5017 41.844H27.7517C28.114 41.844 28.408 42.138 28.408 42.5002C28.408 42.8625 28.114 43.1565 27.7517 43.1565ZM38.2517 35.2815H22.5017C22.1395 35.2815 21.8455 34.9875 21.8455 34.6252C21.8455 34.263 22.1395 33.969 22.5017 33.969H38.2517C38.614 33.969 38.908 34.263 38.908 34.6252C38.908 34.9875 38.614 35.2815 38.2517 35.2815ZM38.2517 27.4065H22.5017C22.1395 27.4065 21.8455 27.1125 21.8455 26.7502C21.8455 26.388 22.1395 26.094 22.5017 26.094H38.2517C38.614 26.094 38.908 26.388 38.908 26.7502C38.908 27.1125 38.614 27.4065 38.2517 27.4065Z" fill="#4682FA"/>
</svg>
