<svg width="20" height="20" viewBox="0 0 20 20" fill="none" xmlns="http://www.w3.org/2000/svg">
<path d="M12.1631 11.2644C11.515 11.645 10.7863 11.875 10 11.875C9.21375 11.875 8.485 11.645 7.83688 11.2644C5.55875 11.4138 3.75 13.31 3.75 15.625V16.7063L4.18437 16.8457C4.26812 16.8719 6.27375 17.5 10 17.5C13.7262 17.5 15.7319 16.8719 15.8156 16.8457L16.25 16.7063V15.625C16.25 13.31 14.4413 11.4138 12.1631 11.2644Z" fill="#9B9FB7"/>
<path d="M10 10.625C12.1119 10.625 13.75 8.27312 13.75 6.25C13.75 4.18187 12.0681 2.5 10 2.5C7.93187 2.5 6.25 4.18187 6.25 6.25C6.25 8.27312 7.88813 10.625 10 10.625Z" fill="#9B9FB7"/>
</svg>
