<svg width="24" height="24" viewBox="0 0 24 24" fill="none" xmlns="http://www.w3.org/2000/svg">
<path d="M12.0004 0.375C10.7576 0.375 9.75037 1.38225 9.75037 2.625V7.5C9.75037 7.707 9.91837 7.875 10.1254 7.875H13.8754C14.0824 7.875 14.2504 7.707 14.2504 7.5V2.625C14.2504 1.38225 13.2431 0.375 12.0004 0.375ZM12.0004 3.375C11.586 3.375 11.2504 3.03937 11.2504 2.625C11.2504 2.21062 11.586 1.875 12.0004 1.875C12.4147 1.875 12.7504 2.21062 12.7504 2.625C12.7504 3.03937 12.4147 3.375 12.0004 3.375Z" fill="#4682FA"/>
<path d="M15.5 7.875V6.125H22.875C23.0132 6.125 23.125 6.23677 23.125 6.375V22.875C23.125 23.0132 23.0132 23.125 22.875 23.125H1.125C0.986767 23.125 0.875 23.0132 0.875 22.875V6.375C0.875 6.23677 0.986767 6.125 1.125 6.125H8.5V7.875C8.5 8.56552 9.05948 9.125 9.75 9.125H14.25C14.9405 9.125 15.5 8.56552 15.5 7.875ZM10.25 13.125C10.25 11.815 9.18502 10.75 7.875 10.75C6.56498 10.75 5.5 11.815 5.5 13.125C5.5 14.435 6.56498 15.5 7.875 15.5C9.18502 15.5 10.25 14.435 10.25 13.125ZM4.125 20.375H11.625C12.1081 20.375 12.5 19.9831 12.5 19.5C12.5 17.3631 10.7619 15.625 8.625 15.625H7.125C4.98811 15.625 3.25 17.3631 3.25 19.5C3.25 19.9831 3.64186 20.375 4.125 20.375ZM14.625 18.5H19.875C20.3581 18.5 20.75 18.1081 20.75 17.625C20.75 17.1419 20.3581 16.75 19.875 16.75H14.625C14.1419 16.75 13.75 17.1419 13.75 17.625C13.75 18.1081 14.1419 18.5 14.625 18.5ZM14.625 14.75H19.875C20.3581 14.75 20.75 14.3581 20.75 13.875C20.75 13.3919 20.3581 13 19.875 13H14.625C14.1419 13 13.75 13.3919 13.75 13.875C13.75 14.3581 14.1419 14.75 14.625 14.75Z" stroke="#4682FA"/>
</svg>
