<svg width="24" height="24" viewBox="0 0 24 24" fill="none" xmlns="http://www.w3.org/2000/svg">
<path d="M22.7413 1.58786C22.6897 1.54446 22.6272 1.51581 22.5606 1.50492C22.494 1.49403 22.4258 1.50131 22.3629 1.52599L1.36295 9.77599C1.30003 9.80068 1.24496 9.84191 1.20355 9.89533C1.16215 9.94875 1.13595 10.0124 1.12772 10.0795C1.1195 10.1465 1.12956 10.2146 1.15684 10.2764C1.18412 10.3383 1.22761 10.3916 1.2827 10.4307L4.67345 12.842L13.2497 8.86999L6.37483 14.0521V22.1251C6.37451 22.1951 6.3938 22.2639 6.43053 22.3235C6.46725 22.3831 6.51994 22.4313 6.58262 22.4625C6.6453 22.4937 6.71547 22.5067 6.78518 22.5001C6.8549 22.4935 6.92137 22.4675 6.97708 22.4251L12.3696 18.3151L18.1577 22.4307C18.221 22.476 18.297 22.5003 18.3748 22.5001C18.4219 22.5001 18.4686 22.4913 18.5124 22.4742C18.5705 22.4512 18.622 22.4141 18.662 22.3661C18.7021 22.3182 18.7296 22.261 18.7419 22.1997L22.8669 1.94974C22.8805 1.8837 22.8759 1.81523 22.8538 1.75155C22.8317 1.68787 22.7929 1.63132 22.7413 1.58786V1.58786Z" fill="#4682FA"/>
</svg>
