<svg width="24" height="24" viewBox="0 0 24 24" fill="none" xmlns="http://www.w3.org/2000/svg">
<path d="M17.251 1.2749L12.376 3.8624V22.7249L17.251 20.1374V1.2749Z" fill="#C4C4C4"/>
<path d="M11.6262 3.8624L6.75122 1.2749V20.1374L11.6262 22.7249V3.8624Z" fill="#C4C4C4"/>
<path d="M6.00037 1.2749L0.562866 4.1624C0.450366 4.2374 0.375366 4.3499 0.375366 4.4999V22.4999C0.375366 22.6499 0.450366 22.7624 0.562866 22.8374C0.675366 22.9124 0.825366 22.9124 0.937866 22.8374L6.00037 20.1374V1.2749Z" fill="#C4C4C4"/>
<path d="M23.4382 4.1624L18.0007 1.2749V20.1374L23.0632 22.8374C23.1757 22.9124 23.3257 22.9124 23.4382 22.8374C23.5507 22.7624 23.6257 22.6499 23.6257 22.4999V4.4999C23.6257 4.3499 23.5507 4.2374 23.4382 4.1624Z" fill="#C4C4C4"/>
</svg>
