<svg width="20" height="20" viewBox="0 0 20 20" fill="none" xmlns="http://www.w3.org/2000/svg">
<path d="M17.8752 12.3437C17.2502 11.6562 16.5627 10.875 16.5627 9.375V6.8125C16.5627 3.34375 13.5002 0.3125 10.0002 0.3125C6.50017 0.3125 3.43767 3.375 3.43767 6.875V9.375C3.43767 10.875 2.75017 11.6562 2.12517 12.3437C1.62517 12.9062 1.15642 13.4375 1.15642 14.25C1.15642 15.9687 4.71892 17.125 10.0002 17.125C15.2814 17.125 18.8439 15.9687 18.8439 14.25C18.8439 13.4687 18.3752 12.9062 17.8752 12.3437Z" fill="#9B9FB7"/>
<path d="M10.001 17.75C9.03223 17.75 8.09473 17.7187 7.25098 17.625C7.59473 18.8125 8.68848 19.6562 10.001 19.6562C11.3135 19.6562 12.4072 18.7812 12.751 17.625C11.9072 17.7187 10.9697 17.75 10.001 17.75Z" fill="#9B9FB7"/>
</svg>
