<svg width="24" height="24" viewBox="0 0 24 24" fill="none" xmlns="http://www.w3.org/2000/svg">
<path fill-rule="evenodd" clip-rule="evenodd" d="M9 9.8115C9.8835 9.2985 10.9065 9 12 9C15.3082 9 18 11.6918 18 15C18 18.3082 15.3082 21 12 21C8.69175 21 6 18.3082 6 15C6 13.4843 6.56925 12.102 7.5 11.0445V7.5C7.5 5.01825 9.51825 3 12 3C14.4818 3 16.5 5.01825 16.5 7.5H15C15 5.8455 13.6545 4.5 12 4.5C10.3455 4.5 9 5.8455 9 7.5V9.8115ZM12.75 18V16.362C13.6207 16.0515 14.25 15.2265 14.25 14.25C14.25 13.0095 13.2405 12 12 12C10.7595 12 9.75 13.0095 9.75 14.25C9.75 15.2265 10.3793 16.0515 11.25 16.362V18H12.75Z" fill="#9B9FB7"/>
</svg>
