<svg width="20" height="20" viewBox="0 0 20 20" fill="none" xmlns="http://www.w3.org/2000/svg">
<path d="M14.8876 20C13.872 19.9544 12.8806 19.6758 11.9899 19.1857C10.0586 18.1848 8.27324 16.9245 6.68339 15.4399C4.44298 13.453 2.54578 11.1101 1.06821 8.50559C0.616365 7.72828 0.284023 6.88744 0.0823375 6.01128C-0.0573516 5.39036 -0.0187144 4.74262 0.193788 4.14269C0.678077 2.71493 1.55088 1.45043 2.71418 0.491221C2.85652 0.330469 3.03264 0.203162 3.22992 0.118388C3.42721 0.0336144 3.64079 -0.00651162 3.85539 0.000859223C4.07 0.00823006 4.28033 0.0629162 4.47133 0.161026C4.66233 0.259135 4.82928 0.398248 4.96026 0.568387C6.2746 1.88769 7.32755 3.44359 8.06361 5.15413C8.141 5.30391 8.18754 5.46769 8.20048 5.63578C8.21341 5.80387 8.19248 5.97285 8.13892 6.13271C8.08537 6.29256 8.00027 6.44006 7.88867 6.56643C7.77707 6.69281 7.64124 6.79549 7.48923 6.86843C7.06916 7.117 6.63195 7.29701 6.16902 7.51129C5.70609 7.72558 5.81754 7.68273 5.99756 8.02559C6.8811 9.7317 8.12065 11.2283 9.63243 12.4142C10.2925 12.9285 11.0127 13.3742 11.707 13.8457C11.8185 13.9142 11.9557 13.9571 12.0757 14.0257C12.1957 14.0942 12.3157 14.0257 12.3843 13.8971C12.5643 13.4942 12.7529 13.0999 12.9415 12.6971C13.0019 12.5835 13.0706 12.4746 13.1473 12.3714C13.3 12.0921 13.5553 11.8832 13.8593 11.7889C14.1633 11.6945 14.4921 11.722 14.7761 11.8656C15.3666 12.1118 15.9394 12.3981 16.4907 12.7228C17.5962 13.3463 18.6019 14.1322 19.474 15.0542C19.6025 15.1975 19.7173 15.3524 19.8169 15.5171C19.9214 15.6705 19.9836 15.8487 19.9972 16.0339C20.0107 16.219 19.9752 16.4044 19.8941 16.5714C19.7515 16.8791 19.57 17.1671 19.354 17.4285C18.4097 18.5307 17.1826 19.3546 15.8048 19.8114C15.5038 19.8954 15.1973 19.9584 14.8876 20Z" fill="#4682FA"/>
</svg>
