<svg width="24" height="24" viewBox="0 0 24 24" fill="none" xmlns="http://www.w3.org/2000/svg">
<path d="M12.0005 0.375C5.59024 0.375 0.375488 5.59012 0.375488 12C0.375488 18.4099 5.59024 23.625 12.0005 23.625C18.4107 23.625 23.6255 18.4099 23.6255 12C23.6255 5.59012 18.4107 0.375 12.0005 0.375ZM7.50049 10.5C7.50049 8.01862 9.51911 6 12.0005 6C14.4819 6 16.5005 8.01862 16.5005 10.5V11.625C16.5005 14.1064 14.4819 16.125 12.0005 16.125C9.51911 16.125 7.50049 14.1064 7.50049 11.625V10.5ZM12.0005 22.875C9.48761 22.875 7.17311 22.0159 5.32961 20.5792C6.40624 18.7462 8.34799 17.625 10.5005 17.625H13.5005C15.6504 17.625 17.5921 18.7462 18.671 20.5796C16.8275 22.0162 14.513 22.875 12.0005 22.875Z" fill="#4682FA"/>
</svg>
