<svg width="126" height="158" viewBox="0 0 126 158" fill="none" xmlns="http://www.w3.org/2000/svg">
<path d="M94.3333 98.5835C94.3333 107.2 91.9833 126 77.1 147.934L70.8333 110.334L77.8833 95.4502C73.1833 95.4502 68.4833 94.6669 63 94.6669C57.5166 94.6669 52.8166 95.4502 48.1166 95.4502L55.1666 110.334L48.8999 147.934C34.0166 126.784 31.6666 107.2 31.6666 98.5835C12.8666 104.067 0.333282 114.25 0.333282 126V157.334H125.667V126C125.667 114.25 113.133 104.067 94.3333 98.5835ZM15.9999 20.2502C15.9999 9.28354 37.15 0.66687 63 0.66687C88.85 0.66687 110 9.28354 110 20.2502C110 23.3835 108.433 25.7335 106.083 28.0835C99.0333 21.0335 82.5833 16.3335 63 16.3335C43.4166 16.3335 26.9666 21.0335 19.9166 28.0835C17.5666 25.7335 15.9999 23.3835 15.9999 20.2502ZM93.5499 42.9669C94.3333 44.5335 94.3333 46.1002 94.3333 47.6669C94.3333 64.9002 80.2333 79.0002 63 79.0002C45.7666 79.0002 31.6666 64.9002 31.6666 47.6669C31.6666 46.1002 31.6666 44.5335 32.45 42.9669C40.2833 46.1002 51.25 47.6669 63 47.6669C74.75 47.6669 85.7166 46.1002 93.5499 42.9669ZM99.0333 32.7835C90.4166 36.7002 77.8833 39.8335 63 39.8335C48.1166 39.8335 35.5833 36.7002 26.9666 32.7835C32.45 28.0835 45.7666 24.1669 63 24.1669C80.2333 24.1669 93.55 28.0835 99.0333 32.7835Z" fill="white"/>
</svg>
