<svg width="176" height="140" viewBox="0 0 176 140" fill="none" xmlns="http://www.w3.org/2000/svg">
<path d="M150.789 80.6507C150.789 80.4325 150.789 80.2143 150.68 79.9961L87.9483 28.2837L25.2169 79.9961C25.2169 80.2143 25.1078 80.4325 25.1078 80.6507V133.018C25.1078 136.836 28.2717 140 32.0901 140H73.9837V98.1064H101.913V140H143.806C147.625 140 150.789 136.836 150.789 133.018V80.6507ZM175.118 73.1229C176.318 71.7047 176.099 69.4136 174.681 68.2135L150.789 48.3577V3.84571C150.789 1.88195 149.261 0.354575 147.298 0.354575H126.351C124.387 0.354575 122.86 1.88195 122.86 3.84571V25.1198L96.2397 2.86382C91.6576 -0.954607 84.2389 -0.954607 79.6568 2.86382L1.21537 68.2135C-0.202907 69.4136 -0.421103 71.7047 0.778975 73.1229L7.54305 81.1962C8.08854 81.8508 8.96132 82.2872 9.83411 82.3963C10.816 82.5054 11.6888 82.1781 12.4525 81.6326L87.9483 18.683L163.444 81.6326C164.099 82.1781 164.862 82.3963 165.735 82.3963C165.844 82.3963 165.953 82.3963 166.062 82.3963C166.935 82.2872 167.808 81.8508 168.354 81.1962L175.118 73.1229Z" fill="white"/>
</svg>
