<svg width="151" height="166" viewBox="0 0 151 166" fill="none" xmlns="http://www.w3.org/2000/svg">
<path d="M74.989 37.4442C81.4406 37.4415 87.8295 38.6583 93.7905 41.0252C99.7515 43.3921 105.168 46.8626 109.73 51.2383C114.292 55.6141 117.91 60.8093 120.378 66.527C122.845 72.2447 124.114 78.3728 124.111 84.561V128.111H25.8887V84.561C25.8858 78.3745 27.1538 72.2481 29.62 66.5318C32.0863 60.8154 35.7025 55.6211 40.2622 51.2457C44.8218 46.8702 50.2356 43.3993 56.1941 41.0312C62.1526 38.6631 68.5392 37.4442 74.989 37.4442Z" fill="white"/>
<path d="M132.953 135.667H17.0462C13.5841 135.667 10.7776 138.538 10.7776 142.081V159.475C10.7776 163.017 13.5841 165.889 17.0462 165.889H132.953C136.415 165.889 139.222 163.017 139.222 159.475V142.081C139.222 138.538 136.415 135.667 132.953 135.667Z" fill="white"/>
<path d="M78.7776 105.444H71.222V128.111H78.7776V105.444Z" fill="#EAF1FF"/>
<path d="M74.9998 113C89.6047 113 101.444 101.161 101.444 86.5556C101.444 71.9508 89.6047 60.1112 74.9998 60.1112C60.395 60.1112 48.5554 71.9508 48.5554 86.5556C48.5554 101.161 60.395 113 74.9998 113Z" fill="#EAF1FF"/>
<path d="M75 24.077C73.9712 24.0771 72.9836 23.848 72.2498 23.439C71.516 23.03 71.0948 22.4739 71.0769 21.8904V2.76379C71.0769 2.17363 71.4903 1.60764 72.226 1.19033C72.9617 0.773016 73.9596 0.538574 75 0.538574C76.0405 0.538574 77.0383 0.773016 77.7741 1.19033C78.5098 1.60764 78.9231 2.17363 78.9231 2.76379V21.8904C78.9053 22.4739 78.4841 23.03 77.7503 23.439C77.0165 23.848 76.0288 24.0771 75 24.077Z" fill="white"/>
<path d="M45.0134 32.3192C44.1201 32.8295 43.2056 33.2199 42.467 33.4063C41.7284 33.5927 41.2248 33.5602 41.0646 33.3157L36.3211 25.0118C36.1747 24.7555 36.3933 24.3048 36.9286 23.7587C37.4639 23.2126 38.2723 22.6158 39.1757 22.0998C40.0792 21.5837 41.0038 21.1905 41.7461 21.0068C42.4884 20.823 42.9877 20.8637 43.134 21.12L47.8776 29.4239C48.0068 29.6861 47.779 30.1365 47.2432 30.678C46.7075 31.2195 45.9067 31.8089 45.0134 32.3192Z" fill="white"/>
<path d="M13.1458 74.1524C12.9489 75.1622 12.6474 76.1097 12.3063 76.7907C11.9651 77.4718 11.6116 77.832 11.3218 77.7937L1.93533 75.9632C1.6457 75.9067 1.44705 75.4469 1.38308 74.6848C1.3191 73.9228 1.39504 72.9209 1.59419 71.8997C1.79334 70.8785 2.09939 69.9215 2.44501 69.2393C2.79063 68.5572 3.14751 68.2056 3.43713 68.2621L12.8236 70.0926C13.1065 70.1659 13.2988 70.6326 13.3591 71.3919C13.4194 72.1513 13.3428 73.1427 13.1458 74.1524Z" fill="white"/>
<path d="M150.072 71.8995C149.875 70.8898 149.573 69.9423 149.232 69.2612C148.891 68.5801 148.538 68.2199 148.248 68.2583L138.861 70.0887C138.572 70.1452 138.373 70.6051 138.309 71.3671C138.245 72.1292 138.321 73.131 138.52 74.1522C138.719 75.1735 139.025 76.1304 139.371 76.8126C139.717 77.4948 140.073 77.8463 140.363 77.7898L149.75 75.9593C150.032 75.886 150.225 75.4194 150.285 74.66C150.345 73.9006 150.269 72.9093 150.072 71.8995Z" fill="white"/>
<path d="M111.706 22.0999C110.812 21.5896 109.898 21.1992 109.159 21.0128C108.421 20.8264 107.917 20.8589 107.757 21.1033L103.013 29.4073C102.867 29.6635 103.086 30.1143 103.621 30.6604C104.156 31.2065 104.965 31.8032 105.868 32.3193C106.771 32.8354 107.696 33.2285 108.438 33.4123C109.181 33.596 109.68 33.5553 109.826 33.2991L114.57 24.9951C114.699 24.733 114.471 24.2826 113.936 23.7411C113.4 23.1995 112.599 22.6101 111.706 22.0999Z" fill="white"/>
<path d="M21.8103 48.9329C21.2057 49.7652 20.4398 50.4296 19.6776 50.7828C18.9153 51.1361 18.2179 51.1499 17.7354 50.8214L2.26182 39.5787C1.78438 39.2318 1.56943 38.5648 1.66428 37.7243C1.75914 36.8838 2.15601 35.9387 2.7676 35.097C3.37918 34.2552 4.15538 33.5858 4.92545 33.2359C5.69551 32.8859 6.39635 32.8843 6.8738 33.2312L22.3473 44.4738C22.8089 44.8312 23.0112 45.4988 22.9108 46.3329C22.8103 47.1669 22.4151 48.1007 21.8103 48.9329Z" fill="white"/>
<path d="M147.349 35.0973C146.744 34.2649 145.978 33.6006 145.216 33.2473C144.454 32.8941 143.756 32.8802 143.274 33.2088L127.8 44.4514C127.323 44.7983 127.108 45.4654 127.203 46.3059C127.298 47.1464 127.694 48.0915 128.306 48.9332C128.918 49.7749 129.694 50.4444 130.464 50.7943C131.234 51.1442 131.935 51.1459 132.412 50.799L147.886 39.5564C148.347 39.199 148.55 38.5313 148.449 37.6973C148.349 36.8632 147.954 35.9295 147.349 35.0973Z" fill="white"/>
</svg>
