<svg width="29" height="24" viewBox="0 0 29 24" fill="none" xmlns="http://www.w3.org/2000/svg">
<path d="M24.8605 13.2969C24.8605 13.2609 24.8605 13.2249 24.8425 13.1889L14.5 4.66312L4.15751 13.1889C4.15751 13.2249 4.13952 13.2609 4.13952 13.2969V21.9306C4.13952 22.5601 4.66114 23.0818 5.29068 23.0818H12.1977V16.1748H16.8023V23.0818H23.7093C24.3389 23.0818 24.8605 22.5601 24.8605 21.9306V13.2969ZM28.8716 12.0558C29.0694 11.8219 29.0335 11.4442 28.7996 11.2463L24.8605 7.97271V0.634041C24.8605 0.310276 24.6087 0.0584587 24.2849 0.0584587H20.8314C20.5076 0.0584587 20.2558 0.310276 20.2558 0.634041V4.1415L15.867 0.472157C15.1116 -0.157386 13.8884 -0.157386 13.133 0.472157L0.200377 11.2463C-0.0334532 11.4442 -0.0694271 11.8219 0.128429 12.0558L1.24362 13.3868C1.33355 13.4947 1.47745 13.5667 1.62135 13.5846C1.78323 13.6026 1.92712 13.5487 2.05303 13.4587L14.5 3.08027L26.947 13.4587C27.0549 13.5487 27.1808 13.5846 27.3247 13.5846C27.3427 13.5846 27.3607 13.5846 27.3787 13.5846C27.5226 13.5667 27.6664 13.4947 27.7564 13.3868L28.8716 12.0558Z" fill="#4682FA"/>
</svg>
